<svg xmlns="http://www.w3.org/2000/svg" xmlns:xlink="http://www.w3.org/1999/xlink" version="1.1" width="256" height="256" viewBox="0 0 256 256" xml:space="preserve">

<defs>
</defs>
<g style="stroke: none; stroke-width: 0; stroke-dasharray: none; stroke-linecap: butt; stroke-linejoin: miter; stroke-miterlimit: 10; fill: none; fill-rule: nonzero; opacity: 1;" transform="translate(1.4065934065934016 1.4065934065934016) scale(2.81 2.81)" >
	<path d="M 45 32.055 c 0.552 0 1 -0.448 1 -1 v -1.478 c 0 -0.552 -0.448 -1 -1 -1 s -1 0.448 -1 1 v 1.478 C 44 31.607 44.448 32.055 45 32.055 z" style="stroke: none; stroke-width: 1; stroke-dasharray: none; stroke-linecap: butt; stroke-linejoin: miter; stroke-miterlimit: 10; fill: rgb(0,0,0); fill-rule: nonzero; opacity: 1;" transform=" matrix(1 0 0 1 0 0) " stroke-linecap="round" />
	<path d="M 18.081 32.055 c 0.552 0 1 -0.448 1 -1 v -1.478 c 0 -0.552 -0.448 -1 -1 -1 s -1 0.448 -1 1 v 1.478 C 17.081 31.607 17.528 32.055 18.081 32.055 z" style="stroke: none; stroke-width: 1; stroke-dasharray: none; stroke-linecap: butt; stroke-linejoin: miter; stroke-miterlimit: 10; fill: rgb(0,0,0); fill-rule: nonzero; opacity: 1;" transform=" matrix(1 0 0 1 0 0) " stroke-linecap="round" />
	<path d="M 71.92 32.055 c 0.553 0 1 -0.448 1 -1 v -1.478 c 0 -0.552 -0.447 -1 -1 -1 s -1 0.448 -1 1 v 1.478 C 70.92 31.607 71.367 32.055 71.92 32.055 z" style="stroke: none; stroke-width: 1; stroke-dasharray: none; stroke-linecap: butt; stroke-linejoin: miter; stroke-miterlimit: 10; fill: rgb(0,0,0); fill-rule: nonzero; opacity: 1;" transform=" matrix(1 0 0 1 0 0) " stroke-linecap="round" />
	<path d="M 31.54 23.979 c 0.552 0 1 -0.448 1 -1 v -1.478 c 0 -0.552 -0.448 -1 -1 -1 s -1 0.448 -1 1 v 1.478 C 30.54 23.532 30.988 23.979 31.54 23.979 z" style="stroke: none; stroke-width: 1; stroke-dasharray: none; stroke-linecap: butt; stroke-linejoin: miter; stroke-miterlimit: 10; fill: rgb(0,0,0); fill-rule: nonzero; opacity: 1;" transform=" matrix(1 0 0 1 0 0) " stroke-linecap="round" />
	<path d="M 58.46 23.979 c 0.553 0 1 -0.448 1 -1 v -1.478 c 0 -0.552 -0.447 -1 -1 -1 s -1 0.448 -1 1 v 1.478 C 57.46 23.532 57.907 23.979 58.46 23.979 z" style="stroke: none; stroke-width: 1; stroke-dasharray: none; stroke-linecap: butt; stroke-linejoin: miter; stroke-miterlimit: 10; fill: rgb(0,0,0); fill-rule: nonzero; opacity: 1;" transform=" matrix(1 0 0 1 0 0) " stroke-linecap="round" />
	<path d="M 90 43.461 c 0 -2.709 -1.966 -4.964 -4.546 -5.423 C 84.854 17.578 64.213 8.239 45 8.239 c -19.213 0 -39.854 9.339 -40.454 29.799 C 1.967 38.498 0 40.752 0 43.461 c 0 2.7 1.952 4.949 4.518 5.419 v 13.391 c 0 0.127 0.029 0.245 0.072 0.357 c -0.043 0.111 -0.072 0.23 -0.072 0.357 c 0 10.354 8.423 18.776 18.776 18.776 h 43.412 c 10.354 0 18.776 -8.423 18.776 -18.776 c 0 -0.127 -0.029 -0.245 -0.072 -0.357 c 0.043 -0.111 0.072 -0.23 0.072 -0.357 V 48.881 C 88.048 48.41 90 46.161 90 43.461 z M 45 10.239 c 18.215 0 37.782 8.685 38.45 27.709 H 6.55 C 7.218 18.924 26.785 10.239 45 10.239 z M 10.979 48.976 c 3.806 0 7.393 1.476 10.098 4.155 c 3.081 3.052 7.167 4.732 11.505 4.732 h 1.808 c 4.338 0 8.424 -1.681 11.505 -4.732 c 2.705 -2.68 6.292 -4.155 10.098 -4.155 h 27.49 v 5.433 c -3.255 2.178 -6.432 2.09 -9.693 -0.28 c -4.132 -3.003 -8.322 -3.004 -12.456 0 c -3.402 2.47 -6.706 2.468 -10.104 0 c -0.447 -0.327 -1.073 -0.227 -1.396 0.221 c -0.325 0.447 -0.226 1.072 0.221 1.396 c 2.066 1.502 4.147 2.252 6.229 2.252 c 2.08 0 4.161 -0.75 6.228 -2.252 c 3.4 -2.47 6.706 -2.47 10.104 0.001 c 3.604 2.616 7.253 2.949 10.869 1.002 v 5.236 H 6.518 v -5.236 c 1.543 0.832 3.092 1.249 4.64 1.249 c 2.081 0 4.162 -0.75 6.228 -2.252 c 0.447 -0.324 0.546 -0.949 0.221 -1.396 c -0.325 -0.446 -0.949 -0.546 -1.397 -0.221 c -3.262 2.369 -6.438 2.458 -9.692 0.281 v -5.434 H 10.979 z M 66.706 79.762 H 23.294 c -8.915 0 -16.227 -6.99 -16.747 -15.776 h 76.906 C 82.934 72.771 75.621 79.762 66.706 79.762 z M 84.486 46.976 H 55.992 c -4.337 0 -8.423 1.682 -11.505 4.733 c -2.705 2.679 -6.291 4.154 -10.098 4.154 h -1.808 c -3.807 0 -7.393 -1.476 -10.098 -4.154 c -3.083 -3.052 -7.168 -4.733 -11.505 -4.733 H 5.514 C 3.577 46.976 2 45.399 2 43.461 s 1.577 -3.514 3.514 -3.514 h 78.972 c 1.938 0 3.514 1.576 3.514 3.514 S 86.424 46.976 84.486 46.976 z" style="stroke: none; stroke-width: 1; stroke-dasharray: none; stroke-linecap: butt; stroke-linejoin: miter; stroke-miterlimit: 10; fill: rgb(0,0,0); fill-rule: nonzero; opacity: 1;" transform=" matrix(1 0 0 1 0 0) " stroke-linecap="round" />
</g>
</svg>